<svg id="visual" viewBox="0 0 4000 2000" width="4000" height="2000" xmlns="http://www.w3.org/2000/svg" xmlns:xlink="http://www.w3.org/1999/xlink" version="1.1"><rect x="0" y="0" width="4000" height="2000" fill="#5c4e56"></rect><path d="M0 1235L95.2 1197.5C190.3 1160 380.7 1085 571.2 1044.7C761.7 1004.3 952.3 998.7 1142.8 1047.8C1333.3 1097 1523.7 1201 1714.2 1255.7C1904.7 1310.3 2095.3 1315.7 2285.8 1316C2476.3 1316.3 2666.7 1311.7 2857.2 1303.3C3047.7 1295 3238.3 1283 3428.8 1286.2C3619.3 1289.3 3809.7 1307.7 3904.8 1316.8L4000 1326L4000 2001L3904.8 2001C3809.7 2001 3619.3 2001 3428.8 2001C3238.3 2001 3047.7 2001 2857.2 2001C2666.7 2001 2476.3 2001 2285.8 2001C2095.3 2001 1904.7 2001 1714.2 2001C1523.7 2001 1333.3 2001 1142.8 2001C952.3 2001 761.7 2001 571.2 2001C380.7 2001 190.3 2001 95.2 2001L0 2001Z" fill="#aeadc8"></path><path d="M0 1346L95.2 1321.2C190.3 1296.3 380.7 1246.7 571.2 1245C761.7 1243.3 952.3 1289.7 1142.8 1282.8C1333.3 1276 1523.7 1216 1714.2 1186.7C1904.7 1157.3 2095.3 1158.7 2285.8 1205C2476.3 1251.3 2666.7 1342.7 2857.2 1351.8C3047.7 1361 3238.3 1288 3428.8 1254.2C3619.3 1220.3 3809.7 1225.7 3904.8 1228.3L4000 1231L4000 2001L3904.8 2001C3809.7 2001 3619.3 2001 3428.8 2001C3238.3 2001 3047.7 2001 2857.2 2001C2666.7 2001 2476.3 2001 2285.8 2001C2095.3 2001 1904.7 2001 1714.2 2001C1523.7 2001 1333.3 2001 1142.8 2001C952.3 2001 761.7 2001 571.2 2001C380.7 2001 190.3 2001 95.2 2001L0 2001Z" fill="#a2a2c1"></path><path d="M0 1502L95.2 1504.5C190.3 1507 380.7 1512 571.2 1503.5C761.7 1495 952.3 1473 1142.8 1472.7C1333.3 1472.3 1523.7 1493.7 1714.2 1505.5C1904.7 1517.3 2095.3 1519.7 2285.8 1495.3C2476.3 1471 2666.7 1420 2857.2 1383.7C3047.7 1347.3 3238.3 1325.7 3428.8 1326C3619.3 1326.3 3809.7 1348.7 3904.8 1359.8L4000 1371L4000 2001L3904.8 2001C3809.7 2001 3619.3 2001 3428.8 2001C3238.3 2001 3047.7 2001 2857.2 2001C2666.7 2001 2476.3 2001 2285.8 2001C2095.3 2001 1904.7 2001 1714.2 2001C1523.7 2001 1333.3 2001 1142.8 2001C952.3 2001 761.7 2001 571.2 2001C380.7 2001 190.3 2001 95.2 2001L0 2001Z" fill="#9597ba"></path><path d="M0 1557L95.2 1566.5C190.3 1576 380.7 1595 571.2 1591.2C761.7 1587.3 952.3 1560.7 1142.8 1564.5C1333.3 1568.3 1523.7 1602.7 1714.2 1592.2C1904.7 1581.7 2095.3 1526.3 2285.8 1520.2C2476.3 1514 2666.7 1557 2857.2 1571.7C3047.7 1586.3 3238.3 1572.7 3428.8 1564.8C3619.3 1557 3809.7 1555 3904.8 1554L4000 1553L4000 2001L3904.8 2001C3809.7 2001 3619.3 2001 3428.8 2001C3238.3 2001 3047.7 2001 2857.2 2001C2666.7 2001 2476.3 2001 2285.8 2001C2095.3 2001 1904.7 2001 1714.2 2001C1523.7 2001 1333.3 2001 1142.8 2001C952.3 2001 761.7 2001 571.2 2001C380.7 2001 190.3 2001 95.2 2001L0 2001Z" fill="#898db4"></path><path d="M0 1669L95.2 1677.8C190.3 1686.7 380.7 1704.3 571.2 1720.2C761.7 1736 952.3 1750 1142.8 1761.3C1333.3 1772.7 1523.7 1781.3 1714.2 1778.5C1904.7 1775.7 2095.3 1761.3 2285.8 1739C2476.3 1716.7 2666.7 1686.3 2857.2 1663.5C3047.7 1640.7 3238.3 1625.3 3428.8 1621.2C3619.3 1617 3809.7 1624 3904.8 1627.5L4000 1631L4000 2001L3904.8 2001C3809.7 2001 3619.3 2001 3428.8 2001C3238.3 2001 3047.7 2001 2857.2 2001C2666.7 2001 2476.3 2001 2285.8 2001C2095.3 2001 1904.7 2001 1714.2 2001C1523.7 2001 1333.3 2001 1142.8 2001C952.3 2001 761.7 2001 571.2 2001C380.7 2001 190.3 2001 95.2 2001L0 2001Z" fill="#7c83ad"></path><path d="M0 1844L95.2 1839.5C190.3 1835 380.7 1826 571.2 1817.3C761.7 1808.7 952.3 1800.3 1142.8 1808.2C1333.3 1816 1523.7 1840 1714.2 1849.8C1904.7 1859.7 2095.3 1855.3 2285.8 1855C2476.3 1854.7 2666.7 1858.3 2857.2 1846.3C3047.7 1834.3 3238.3 1806.7 3428.8 1789.5C3619.3 1772.3 3809.7 1765.7 3904.8 1762.3L4000 1759L4000 2001L3904.8 2001C3809.7 2001 3619.3 2001 3428.8 2001C3238.3 2001 3047.7 2001 2857.2 2001C2666.7 2001 2476.3 2001 2285.8 2001C2095.3 2001 1904.7 2001 1714.2 2001C1523.7 2001 1333.3 2001 1142.8 2001C952.3 2001 761.7 2001 571.2 2001C380.7 2001 190.3 2001 95.2 2001L0 2001Z" fill="#6f79a6"></path></svg>